<?xml version="1.0" encoding="utf-8"?>
<!-- Generator: Adobe Illustrator 16.0.0, SVG Export Plug-In . SVG Version: 6.00 Build 0)  -->
<!DOCTYPE svg PUBLIC "-//W3C//DTD SVG 1.1//EN" "http://www.w3.org/Graphics/SVG/1.1/DTD/svg11.dtd">
<svg version="1.1" id="Layer_1" xmlns="http://www.w3.org/2000/svg" xmlns:xlink="http://www.w3.org/1999/xlink" x="0px" y="0px"
	 width="1204px" height="1204px" viewBox="0 0 1204 1204" enable-background="new 0 0 1204 1204" xml:space="preserve">
<rect fill="none" width="1204" height="1204"/>
<rect y="1137.736" width="1204" height="65.264"/>
<g>
	<g>
		<g>
			<g>
				<g>
					<path fill="#FFFFFF" d="M359.498,1155.414h5.208c4.091,0,7.465,1.081,10.111,3.237c2.672,2.135,4.005,5.206,4.005,9.211
						c0,4.117-1.322,7.269-3.973,9.441c-2.644,2.186-6.062,3.277-10.242,3.277h-5.109V1155.414z M362.635,1177.709h1.103
						c1.626,0,3.157-0.161,4.611-0.484c1.444-0.322,2.7-0.867,3.784-1.632c1.074-0.769,1.939-1.772,2.584-3.005
						c0.647-1.237,0.965-2.768,0.965-4.589c0-1.807-0.312-3.346-0.946-4.622c-0.636-1.28-1.52-2.277-2.656-2.991
						c-1.134-0.73-2.386-1.265-3.756-1.603c-1.364-0.334-2.893-0.5-4.586-0.5h-1.103V1177.709z"/>
					<path fill="#FFFFFF" d="M383.428,1173.269c0.045,1.403,0.49,2.614,1.337,3.641c0.865,1.021,1.992,1.537,3.367,1.537
						c1.092,0,1.989-0.25,2.689-0.752c0.698-0.502,1.364-1.26,1.984-2.286l2.54,1.433c-0.738,1.335-1.745,2.378-3.026,3.141
						c-1.278,0.754-2.683,1.129-4.219,1.129c-2.337,0-4.205-0.775-5.61-2.335c-1.375-1.575-2.062-3.539-2.062-5.875
						c0-2.463,0.652-4.488,1.964-6.067c1.291-1.56,3.171-2.341,5.641-2.341c2.403,0,4.215,0.781,5.441,2.341
						c1.243,1.551,1.87,3.543,1.87,5.971v0.465H383.428z M392.339,1170.998c-0.179-1.2-0.636-2.149-1.386-2.851
						c-0.749-0.7-1.718-1.051-2.918-1.051c-0.581,0-1.125,0.091-1.619,0.283c-0.5,0.191-0.948,0.462-1.338,0.819
						c-0.388,0.355-0.711,0.771-0.968,1.253c-0.254,0.48-0.426,0.994-0.517,1.546H392.339z"/>
					<path fill="#FFFFFF" d="M404.189,1168.531c-0.448-0.908-1.115-1.37-2.004-1.37c-0.42,0-0.801,0.151-1.134,0.449
						c-0.333,0.305-0.5,0.665-0.5,1.088c0,0.399,0.125,0.736,0.384,1.02c0.254,0.281,0.602,0.538,1.049,0.783
						c0.288,0.131,0.514,0.238,0.67,0.316c0.153,0.078,0.407,0.196,0.768,0.35c0.17,0.091,0.333,0.161,0.466,0.2
						c0.132,0.046,0.232,0.091,0.301,0.135c1.109,0.511,1.989,1.102,2.638,1.767c0.645,0.671,0.965,1.561,0.965,2.674
						c0,1.468-0.536,2.703-1.601,3.701c-1.052,0.979-2.302,1.467-3.774,1.467c-0.598,0-1.181-0.081-1.735-0.247
						c-0.554-0.164-1.071-0.401-1.55-0.702c-0.476-0.302-0.899-0.668-1.266-1.101c-0.367-0.434-0.653-0.921-0.852-1.45l2.569-1.17
						c0.733,1.333,1.679,2.006,2.834,2.006c0.472,0,0.904-0.133,1.303-0.387c0.401-0.257,0.697-0.578,0.885-0.968
						c0.187-0.39,0.227-0.812,0.118-1.267c-0.11-0.458-0.459-0.885-1.037-1.288l-2.938-1.564c-0.507-0.271-0.952-0.535-1.33-0.807
						c-0.381-0.259-0.691-0.548-0.935-0.849c-0.245-0.303-0.431-0.635-0.555-1.006c-0.119-0.361-0.178-0.791-0.178-1.279
						c0-1.271,0.441-2.335,1.333-3.203c0.891-0.895,1.981-1.337,3.271-1.337c1.958,0,3.381,0.911,4.271,2.737L404.189,1168.531z"/>
					<path fill="#FFFFFF" d="M414.966,1157.818c0,0.56-0.199,1.03-0.603,1.435c-0.401,0.402-0.887,0.597-1.466,0.597
						c-0.576,0-1.068-0.194-1.469-0.597c-0.398-0.404-0.6-0.875-0.6-1.435c0-0.581,0.202-1.073,0.6-1.485
						c0.401-0.413,0.893-0.615,1.469-0.615c0.58,0,1.065,0.202,1.466,0.615C414.767,1156.745,414.966,1157.237,414.966,1157.818z
						 M414.397,1180.581h-3.001v-15.626h3.001V1180.581z"/>
					<path fill="#FFFFFF" d="M433.825,1180.277c0,2.94-0.556,5.221-1.669,6.843c-1.112,1.603-3.095,2.406-5.945,2.406
						c-2.197,0-4.003-0.638-5.403-1.902c-1.378-1.271-2.089-2.994-2.133-5.181h3.001c0,1.408,0.426,2.49,1.284,3.258
						c0.858,0.772,1.989,1.156,3.389,1.156c1.713,0,2.885-0.505,3.521-1.505c0.639-1.003,0.951-2.417,0.951-4.242v-2.971h-0.066
						c-0.624,0.939-1.393,1.668-2.323,2.189c-0.921,0.523-1.917,0.781-2.982,0.781c-2.318,0-4.138-0.808-5.476-2.431
						c-1.336-1.63-2.004-3.627-2.004-6.009c0-2.246,0.68-4.157,2.039-5.744c1.354-1.624,3.123-2.435,5.306-2.435
						c2.293,0,4.102,1.046,5.439,3.139h0.066v-2.676h3.005V1180.277z M425.912,1178.446c1.581,0,2.813-0.546,3.706-1.638
						c0.913-1.112,1.372-2.464,1.372-4.038c0-1.557-0.459-2.882-1.372-3.969c-0.893-1.095-2.125-1.641-3.706-1.641
						c-1.489,0-2.69,0.562-3.605,1.668c-0.886,1.093-1.331,2.402-1.331,3.941c0,1.574,0.445,2.913,1.331,4.005
						C423.222,1177.888,424.423,1178.446,425.912,1178.446z"/>
					<path fill="#FFFFFF" d="M440.729,1167.061h0.072c0.444-0.817,1.091-1.455,1.933-1.898c0.846-0.446,1.771-0.67,2.772-0.67
						c1.021,0,1.892,0.156,2.6,0.463c0.714,0.318,1.287,0.76,1.721,1.34c0.434,0.581,0.744,1.282,0.934,2.12
						c0.187,0.833,0.283,1.785,0.283,2.855v9.311h-3.002v-8.944c0-1.539-0.221-2.657-0.669-3.369
						c-0.441-0.737-1.367-1.106-2.766-1.106c-0.517,0-0.951,0.051-1.306,0.151c-0.354,0.099-0.664,0.246-0.934,0.436
						c-0.27,0.191-0.485,0.402-0.669,0.649c-0.174,0.242-0.343,0.514-0.498,0.801c-0.07,0.158-0.13,0.355-0.183,0.6
						c-0.056,0.246-0.106,0.498-0.153,0.75c-0.044,0.258-0.077,0.516-0.099,0.77c-0.022,0.257-0.036,0.462-0.036,0.615v1.473v7.176
						h-3.001v-15.626h3.001V1167.061z"/>
					<path fill="#FFFFFF" d="M464.594,1151.611h3.004v15.952h0.069c1.38-2.047,3.192-3.071,5.438-3.071
						c2.183,0,3.952,0.811,5.306,2.435c1.359,1.587,2.033,3.498,2.033,5.744c0,2.382-0.663,4.379-1.999,6.009
						c-1.334,1.623-3.157,2.431-5.474,2.431c-1.067,0-2.063-0.258-2.987-0.781c-0.924-0.521-1.693-1.25-2.317-2.189h-0.069v2.441
						h-3.004V1151.611z M472.372,1178.446c1.582,0,2.815-0.546,3.702-1.638c0.918-1.112,1.372-2.464,1.372-4.038
						c0-1.557-0.454-2.882-1.372-3.969c-0.887-1.095-2.12-1.641-3.702-1.641c-1.489,0-2.69,0.562-3.608,1.668
						c-0.887,1.093-1.334,2.402-1.334,3.941c0,1.574,0.447,2.913,1.334,4.005C469.682,1177.888,470.883,1178.446,472.372,1178.446z"
						/>
					<path fill="#FFFFFF" d="M480.883,1164.955h3.505l5.271,9.917l4.904-9.917h3.373l-12.649,24.571h-3.405l6.143-11.615
						L480.883,1164.955z"/>
					<path fill="#FFFFFF" d="M513.089,1174.271l-2.868,6.31h-3.374l12.017-26.235l12.013,26.235h-3.366l-2.874-6.31H513.089z
						 M518.863,1161.22l-4.474,10.178h8.944L518.863,1161.22z"/>
					<path fill="#FFFFFF" d="M535.781,1180.581h-3.003v-28.97h3.003V1180.581z"/>
					<path fill="#FFFFFF" d="M543.192,1180.581h-3.007v-28.97h3.007V1180.581z"/>
					<path fill="#FFFFFF" d="M554.604,1168.63v2.504h-7.305v-2.504H554.604z"/>
					<path fill="#FFFFFF" d="M566.284,1154.648c-0.932-0.426-1.598-0.632-1.998-0.632c-0.652,0-1.112,0.202-1.407,0.614
						c-0.284,0.412-0.49,0.916-0.598,1.518c-0.066,0.443-0.104,0.798-0.118,1.051c-0.008,0.257-0.014,0.608-0.014,1.055v6.701h4.135
						v2.807h-4.135v12.819h-3.004v-12.819h-1.367v-2.807h1.367v-7.605c0-4.095,1.678-6.14,5.038-6.14
						c0.731,0,1.434,0.139,2.101,0.401V1154.648z"/>
					<path fill="#FFFFFF" d="M570.928,1167.494h0.098c0.38-0.934,0.935-1.665,1.669-2.2c0.731-0.531,1.6-0.802,2.602-0.802
						c0.824,0,1.651,0.252,2.472,0.767l-1.369,2.74c-0.49-0.422-1.103-0.638-1.835-0.638c-1.535,0-2.557,0.625-3.07,1.87
						c-0.219,0.576-0.372,1.15-0.451,1.717c-0.081,0.571-0.114,1.218-0.114,1.952v7.681h-3.005v-15.626h3.005V1167.494z"/>
					<path fill="#FFFFFF" d="M581.238,1173.269c0.047,1.403,0.492,2.614,1.334,3.641c0.87,1.021,1.992,1.537,3.372,1.537
						c1.091,0,1.984-0.25,2.687-0.752c0.698-0.502,1.359-1.26,1.982-2.286l2.542,1.433c-0.739,1.335-1.743,2.378-3.021,3.141
						c-1.28,0.754-2.688,1.129-4.225,1.129c-2.334,0-4.202-0.775-5.604-2.335c-1.378-1.575-2.07-3.539-2.07-5.875
						c0-2.463,0.654-4.488,1.97-6.067c1.288-1.56,3.171-2.341,5.641-2.341c2.4,0,4.215,0.781,5.44,2.341
						c1.244,1.551,1.87,3.543,1.87,5.971v0.465H581.238z M590.153,1170.998c-0.184-1.2-0.647-2.149-1.388-2.851
						c-0.746-0.7-1.717-1.051-2.921-1.051c-0.581,0-1.117,0.091-1.621,0.283c-0.498,0.191-0.941,0.462-1.335,0.819
						c-0.388,0.355-0.711,0.771-0.966,1.253c-0.256,0.48-0.431,0.994-0.519,1.546H590.153z"/>
					<path fill="#FFFFFF" d="M597.518,1173.269c0.05,1.403,0.498,2.614,1.344,3.641c0.864,1.021,1.989,1.537,3.364,1.537
						c1.087,0,1.992-0.25,2.688-0.752c0.701-0.502,1.359-1.26,1.985-2.286l2.538,1.433c-0.739,1.335-1.742,2.378-3.017,3.141
						c-1.284,0.754-2.691,1.129-4.226,1.129c-2.337,0-4.207-0.775-5.604-2.335c-1.381-1.575-2.068-3.539-2.068-5.875
						c0-2.463,0.656-4.488,1.969-6.067c1.287-1.56,3.173-2.341,5.638-2.341c2.406,0,4.213,0.781,5.438,2.341
						c1.246,1.551,1.87,3.543,1.87,5.971v0.465H597.518z M606.436,1170.998c-0.185-1.2-0.64-2.149-1.385-2.851
						c-0.749-0.7-1.723-1.051-2.923-1.051c-0.579,0-1.115,0.091-1.625,0.283c-0.495,0.191-0.94,0.462-1.328,0.819
						c-0.392,0.355-0.708,0.771-0.965,1.253c-0.261,0.48-0.433,0.994-0.521,1.546H606.436z"/>
					<path fill="#FFFFFF" d="M619.146,1168.63v2.504h-7.305v-2.504H619.146z"/>
					<path fill="#FFFFFF" d="M634.733,1178.14h-0.069c-0.62,0.939-1.394,1.668-2.314,2.189c-0.924,0.523-1.917,0.781-2.985,0.781
						c-2.317,0-4.141-0.808-5.476-2.431c-1.337-1.63-2.005-3.627-2.005-6.009c0-2.246,0.684-4.157,2.036-5.744
						c1.356-1.624,3.127-2.435,5.307-2.435c2.249,0,4.06,1.024,5.438,3.071h0.069v-15.952h3.007v28.97h-3.007V1178.14z
						 M629.828,1178.446c1.579,0,2.819-0.546,3.705-1.638c0.912-1.112,1.363-2.464,1.363-4.038c0-1.557-0.451-2.882-1.363-3.969
						c-0.886-1.095-2.126-1.641-3.705-1.641c-1.491,0-2.69,0.562-3.603,1.668c-0.893,1.093-1.331,2.402-1.331,3.941
						c0,1.574,0.438,2.913,1.331,4.005C627.138,1177.888,628.337,1178.446,629.828,1178.446z"/>
					<path fill="#FFFFFF" d="M642.643,1166.897c1.619-1.604,3.605-2.405,5.942-2.405c2.333,0,4.307,0.802,5.907,2.405
						c1.623,1.601,2.435,3.568,2.435,5.906c0,2.337-0.812,4.304-2.435,5.906c-1.601,1.604-3.574,2.4-5.907,2.4
						c-2.337,0-4.323-0.797-5.942-2.4c-1.598-1.603-2.402-3.569-2.402-5.906C640.24,1170.466,641.045,1168.498,642.643,1166.897z
						 M643.247,1172.804c0,1.448,0.517,2.725,1.566,3.836c1.018,1.069,2.274,1.604,3.771,1.604c1.466,0,2.725-0.534,3.768-1.604
						c1.05-1.111,1.566-2.388,1.566-3.836c0-1.468-0.517-2.746-1.566-3.837c-1.043-1.068-2.302-1.605-3.768-1.605
						c-1.497,0-2.754,0.537-3.771,1.605C643.764,1170.058,643.247,1171.336,643.247,1172.804z"/>
					<path fill="#FFFFFF" d="M665.002,1174.907l4.607-10.813l4.576,10.813l4.536-9.952h3.404l-7.94,16.155l-4.576-10.441
						l-4.607,10.441l-7.94-16.155h3.401L665.002,1174.907z"/>
					<path fill="#FFFFFF" d="M686.631,1167.061h0.069c0.441-0.817,1.09-1.455,1.936-1.898c0.846-0.446,1.77-0.67,2.769-0.67
						c1.027,0,1.89,0.156,2.606,0.463c0.711,0.318,1.287,0.76,1.71,1.34c0.436,0.581,0.755,1.282,0.94,2.12
						c0.19,0.833,0.285,1.785,0.285,2.855v9.311h-3.011v-8.944c0-1.539-0.22-2.657-0.667-3.369
						c-0.436-0.737-1.363-1.106-2.763-1.106c-0.511,0-0.952,0.051-1.307,0.151c-0.356,0.099-0.664,0.246-0.931,0.436
						c-0.269,0.191-0.488,0.402-0.673,0.649c-0.173,0.242-0.342,0.514-0.495,0.801c-0.068,0.158-0.128,0.355-0.185,0.6
						c-0.06,0.246-0.106,0.498-0.15,0.75c-0.041,0.258-0.081,0.516-0.097,0.77c-0.032,0.257-0.038,0.462-0.038,0.615v1.473v7.176
						h-3.001v-15.626h3.001V1167.061z"/>
					<path fill="#FFFFFF" d="M704.22,1180.581h-3.001v-28.97h3.001V1180.581z"/>
					<path fill="#FFFFFF" d="M709.491,1166.897c1.622-1.604,3.605-2.405,5.945-2.405c2.334,0,4.304,0.802,5.904,2.405
						c1.623,1.601,2.434,3.568,2.434,5.906c0,2.337-0.811,4.304-2.434,5.906c-1.601,1.604-3.57,2.4-5.904,2.4
						c-2.34,0-4.323-0.797-5.945-2.4c-1.601-1.603-2.402-3.569-2.402-5.906C707.089,1170.466,707.891,1168.498,709.491,1166.897z
						 M710.096,1172.804c0,1.448,0.52,2.725,1.566,3.836c1.024,1.069,2.277,1.604,3.774,1.604c1.463,0,2.725-0.534,3.768-1.604
						c1.044-1.111,1.57-2.388,1.57-3.836c0-1.468-0.526-2.746-1.57-3.837c-1.043-1.068-2.305-1.605-3.768-1.605
						c-1.497,0-2.75,0.537-3.774,1.605C710.615,1170.058,710.096,1171.336,710.096,1172.804z"/>
					<path fill="#FFFFFF" d="M741.163,1180.581h-3.004v-2.441h-0.063c-1.334,1.982-3.106,2.971-5.306,2.971
						c-2.296,0-4.116-0.808-5.479-2.431c-1.335-1.63-1.999-3.627-1.999-6.009c0-2.246,0.674-4.157,2.036-5.744
						c1.359-1.624,3.136-2.435,5.341-2.435c2.228,0,4.025,1.024,5.406,3.071h0.063v-2.608h3.004V1180.581z M733.257,1178.446
						c1.582,0,2.81-0.546,3.699-1.638c0.914-1.112,1.375-2.464,1.375-4.038c0-1.557-0.461-2.882-1.375-3.969
						c-0.89-1.095-2.117-1.641-3.699-1.641c-1.494,0-2.697,0.562-3.603,1.668c-0.896,1.093-1.338,2.402-1.338,3.941
						c0,1.574,0.442,2.913,1.338,4.005C730.56,1177.888,731.763,1178.446,733.257,1178.446z"/>
					<path fill="#FFFFFF" d="M756.715,1178.14h-0.063c-0.623,0.939-1.397,1.668-2.317,2.189c-0.925,0.523-1.924,0.781-2.989,0.781
						c-2.314,0-4.141-0.808-5.469-2.431c-1.338-1.63-2.008-3.627-2.008-6.009c0-2.246,0.677-4.157,2.039-5.744
						c1.354-1.624,3.123-2.435,5.304-2.435c2.248,0,4.059,1.024,5.44,3.071h0.063v-15.952h3.007v28.97h-3.007V1178.14z
						 M751.813,1178.446c1.579,0,2.807-0.546,3.7-1.638c0.914-1.112,1.371-2.464,1.371-4.038c0-1.557-0.457-2.882-1.371-3.969
						c-0.894-1.095-2.121-1.641-3.7-1.641c-1.494,0-2.693,0.562-3.602,1.668c-0.894,1.093-1.338,2.402-1.338,3.941
						c0,1.574,0.444,2.913,1.338,4.005C749.119,1177.888,750.318,1178.446,751.813,1178.446z"/>
					<path fill="#FFFFFF" d="M768.333,1179.177c0,0.538-0.191,0.992-0.566,1.37c-0.38,0.378-0.837,0.563-1.376,0.563
						c-0.529,0-0.986-0.186-1.359-0.563c-0.379-0.378-0.569-0.832-0.569-1.37c0-0.511,0.19-0.964,0.569-1.354
						c0.373-0.385,0.83-0.581,1.359-0.581c0.539,0,0.996,0.196,1.376,0.581C768.142,1178.213,768.333,1178.666,768.333,1179.177z"/>
					<path fill="#FFFFFF" d="M784.756,1169.396c-1.243-1.396-2.743-2.099-4.476-2.099c-1.447,0-2.685,0.545-3.699,1.634
						c-1.006,1.113-1.51,2.397-1.51,3.84c0,1.626,0.504,2.949,1.51,3.973c1.043,1.044,2.346,1.568,3.899,1.568
						c1.601,0,3.032-0.69,4.275-2.07v3.838c-1.296,0.688-2.725,1.031-4.31,1.031c-2.315,0-4.292-0.781-5.939-2.366
						c-1.629-1.559-2.434-3.508-2.434-5.844c0-2.399,0.805-4.402,2.434-6.003c1.623-1.604,3.662-2.405,6.108-2.405
						c1.606,0,2.979,0.346,4.141,1.035V1169.396z"/>
					<path fill="#FFFFFF" d="M788.994,1166.897c1.62-1.604,3.603-2.405,5.939-2.405s4.301,0.802,5.904,2.405
						c1.632,1.601,2.44,3.568,2.44,5.906c0,2.337-0.809,4.304-2.44,5.906c-1.604,1.604-3.567,2.4-5.904,2.4s-4.319-0.797-5.939-2.4
						c-1.61-1.603-2.405-3.569-2.405-5.906C786.589,1170.466,787.384,1168.498,788.994,1166.897z M789.59,1172.804
						c0,1.448,0.526,2.725,1.569,3.836c1.023,1.069,2.283,1.604,3.774,1.604c1.466,0,2.722-0.534,3.771-1.604
						c1.043-1.111,1.565-2.388,1.565-3.836c0-1.468-0.522-2.746-1.565-3.837c-1.05-1.068-2.306-1.605-3.771-1.605
						c-1.491,0-2.751,0.537-3.774,1.605C790.116,1170.058,789.59,1171.336,789.59,1172.804z"/>
					<path fill="#FFFFFF" d="M808.91,1166.927h0.065c0.451-0.712,1.047-1.295,1.792-1.754c0.745-0.454,1.535-0.681,2.353-0.681
						c1.936,0,3.439,0.927,4.508,2.774c0.488-0.849,1.158-1.523,2.017-2.023c0.858-0.499,1.786-0.751,2.788-0.751
						c3.452,0,5.172,2.25,5.172,6.739v9.35h-3.004v-8.846c0-0.399-0.013-0.796-0.047-1.188c-0.031-0.387-0.098-0.766-0.186-1.132
						c-0.084-0.365-0.222-0.705-0.4-1.019c-0.176-0.31-0.423-0.592-0.733-0.834c-0.4-0.267-0.914-0.402-1.534-0.402
						c-0.624,0-1.159,0.136-1.604,0.402c-0.42,0.242-0.752,0.553-0.986,0.914c-0.229,0.371-0.41,0.835-0.548,1.387
						c-0.132,0.561-0.214,1.062-0.254,1.503c-0.031,0.445-0.044,0.959-0.044,1.533v7.681h-3.004v-8.278
						c0-0.536-0.019-0.975-0.035-1.333c-0.024-0.355-0.091-0.799-0.197-1.339c-0.112-0.575-0.257-1.001-0.438-1.266
						c-0.178-0.315-0.451-0.586-0.833-0.835c-0.376-0.246-0.833-0.369-1.369-0.369c-1.534,0-2.527,0.672-2.969,2.003
						c-0.201,0.631-0.336,1.212-0.396,1.77c-0.071,0.558-0.112,1.216-0.112,1.967v7.681h-2.998v-15.626h2.998V1166.927z"/>
				</g>
				<g>
					<rect x="289.487" y="1169.328" fill="#FFFFFF" width="42.515" height="2.077"/>
					<rect x="855.106" y="1169.328" fill="#FFFFFF" width="42.51" height="2.077"/>
				</g>
			</g>
		</g>
	</g>
</g>
<g>
	<path d="M932.157,877h0.838c1.479,0,2.922-0.717,4.317-1.032c0.138,0,0.385-0.204,0.479-0.204c10.55,0,19.208-8.79,19.208-19.304
		V202.62c0-10.51-8.808-20.62-19.357-20.62h-543.13c-50.719,0-91.918,42.013-91.918,92.7c0,0.656,0.124,1.707,0.178,2.392
		c-0.054,46.786-0.642,592.756-0.054,649.306c-0.036,1.102-0.178,2.268-0.178,3.392c0,48.732,38.128,88.765,86.165,91.792
		c0.928,0.138,1.907,0.419,2.879,0.419h544.507c9.419,0,16.909-7.82,16.909-17.242v-3.97c0-9.427-7.49-16.788-16.909-16.788h-3.987
		c-13.61-7-24.022-27.045-24.704-51.429l0.025-0.355c0.04-0.492,0.069-1.011,0.069-1.519c0-0.689-0.015-1.658-0.037-2.891
		l-0.025-0.993C908.356,902.943,918.775,880,932.157,877z M849,456c0-0.897,0-1.623,0-1.623S849,455.102,849,456v362.169
		c0,0.892,0.393-1.169-0.499-1.169h-281.68c-0.896,0-1.617,4-1.617,0c0,0,0.722,0,1.617,0H849V456z M753,424.955v37.157
		c0,0.896-2.889,2.888-3.784,2.888H675v170.402c0,0.896-3.47-0.402-4.361-0.402h-37.16c-0.896,0,0.521,1.298,0.521,0.402V465
		h-82.072c-0.895,0,0.072-1.993,0.072-2.888v-37.157c0-0.896-0.967-0.955-0.072-0.955H634v-78.119c0-0.896-1.418-3.881-0.521-3.881
		h37.16c0.892,0,4.361,2.986,4.361,3.881V424h74.216C750.111,424,753,424.06,753,424.955z M445,220.863
		c0-0.896-0.467-0.863,0.428-0.863h233.459c0.898,0,1.624,0.604,1.624,1.5s-0.726,1.5-1.624,1.5H448v454.037
		c0,0.896-0.607,1.622-1.5,1.622c-0.898,0-1.5-0.727-1.5-1.622V220.863z M363,274.069c0-0.714,1.104-1.291,2-1.291s2,0.577,2,1.291
		v564.242c0,0.71-1.104,1.29-2,1.29s-2-0.58-2-1.29V274.069z M337,807.851c0,0.711-1.101,1.291-2,1.291c-0.892,0-2-0.58-2-1.291
		V243.608c0-0.712,1.108-1.289,2-1.289c0.899,0,2,0.577,2,1.289V807.851z M898,926.104v0.123l0.119,1.726
		c0.029,1.167,0.088,2.066,0.088,2.708c0,0.254-0.079,0.493-0.095,0.736L898,932.253v0.195c0,21.456,7.942,40.552,18.76,51.552
		H394.466c-28.913,0-52.594-23.144-53.743-51.799c0.04-0.5,0.134-1.044,0.134-1.559c0-0.834-0.037-1.676-0.094-3.451
		C342.438,899.008,365.865,877,394.466,877h522.385C906.21,888,901,905.193,898,926.104z"/>
</g>
</svg>
