<svg xmlns="http://www.w3.org/2000/svg" viewBox="0 0 1440 320"><path fill="#2563EB" fill-opacity="1" d="M0,64L24,90.7C48,117,96,171,144,197.3C192,224,240,224,288,224C336,224,384,224,432,224C480,224,528,224,576,208C624,192,672,160,720,170.7C768,181,816,235,864,218.7C912,203,960,117,1008,90.7C1056,64,1104,96,1152,117.3C1200,139,1248,149,1296,181.3C1344,213,1392,267,1416,293.3L1440,320L1440,0L1416,0C1392,0,1344,0,1296,0C1248,0,1200,0,1152,0C1104,0,1056,0,1008,0C960,0,912,0,864,0C816,0,768,0,720,0C672,0,624,0,576,0C528,0,480,0,432,0C384,0,336,0,288,0C240,0,192,0,144,0C96,0,48,0,24,0L0,0Z"></path></svg>